<svg width="1254" height="1254" viewBox="0 0 1254 1254" fill="none" xmlns="http://www.w3.org/2000/svg">
<g clip-path="url(#clip0_1_99)">
<g filter="url(#filter0_dd_1_99)">
<g clip-path="url(#clip1_1_99)">
<rect x="74" y="74" width="1105" height="1105" rx="249.483" fill="white"/>
<rect width="1105.21" height="258.984" transform="translate(1179.21 333.597) rotate(-179.856)" fill="#99D8FD"/>
<rect width="1105.21" height="258.984" transform="translate(1179.21 1181.77) rotate(-179.856)" fill="#99D8FD"/>
<g clip-path="url(#clip2_1_99)">
<rect width="1105.21" height="195.749" transform="translate(1179.21 922.139) rotate(-179.856)" fill="#FDC3D5"/>
<rect width="1105.21" height="155.391" transform="translate(1118.78 919.981) rotate(-179.856)" fill="#FDC3D5"/>
</g>
<g clip-path="url(#clip3_1_99)">
<rect width="1105.21" height="195.749" transform="translate(1179.21 529.346) rotate(-179.856)" fill="#FDC3D5"/>
<rect width="1105.21" height="155.391" transform="translate(1118.78 527.188) rotate(-179.856)" fill="#FDC3D5"/>
</g>
</g>
<rect x="74.5198" y="74.5198" width="1103.96" height="1103.96" rx="248.963" stroke="#61BDFF" stroke-width="1.03951"/>
</g>
<path d="M947.189 711.221C979.206 697.083 987.557 711.221 987.73 720.057L983.052 845.317C983.572 847.916 982.324 854.05 973.177 857.792C964.492 861.344 943.618 845.829 932.805 836.398C931.904 835.613 930.519 835.75 929.765 836.677C870.21 909.893 791.405 936.868 737.155 955.438C699.967 968.168 674.317 976.949 674.317 993.968C674.318 1011.24 705.368 1018.33 742.333 1026.76C792.115 1038.11 852.626 1051.92 862.469 1096.36C871.052 1135.12 832.895 1162.14 796.396 1179H360.33C493.872 1161.39 664.036 1127.76 661.323 1090.12C659.521 1065.11 622.733 1053.47 589.407 1042.92C561.238 1034.01 535.543 1025.88 535.543 1011.12L499.68 949.268C491.363 955.679 445.002 955.609 561.011 922.761C676.051 890.186 810.821 832.772 860.2 793.803C860.794 793.334 860.674 792.421 860.013 792.054L860.01 792.053L860.009 792.052C858.068 790.974 852.662 787.97 834.922 778.268C823.487 772.015 822.967 752.974 833.362 749.162C842.936 745.652 856.871 741.417 872.237 736.748C897.75 728.995 927.207 720.044 947.189 711.221Z" fill="url(#paint0_linear_1_99)"/>
<path d="M928.277 822.478C928.973 821.597 930.241 821.412 931.151 822.07L963.302 845.317C966.42 846.876 972.761 848.436 973.177 842.199C973.593 835.961 975.429 760.943 976.295 724.214C975.776 720.749 973.281 713.507 963.302 718.497L840.639 757.479C836.308 759.211 830.556 764.131 842.199 769.953C852.577 775.142 868.408 784.021 877.246 789.079C878.584 789.845 878.64 791.745 877.366 792.613C870.893 797.023 864.523 801.672 857.815 806.568C814.077 838.493 755.959 880.914 561.011 935.755L499.68 949.268L535.543 1011.12C535.543 977.174 595.307 962.473 670.274 944.033C759.944 921.976 871.365 894.569 928.277 822.478Z" fill="#99D8FD"/>
<g filter="url(#filter1_f_1_99)">
<path d="M575.136 302.763C577.681 250.869 621.813 210.866 673.706 213.41C725.599 215.956 765.606 260.087 763.062 311.981C761.288 348.142 760.834 381.924 760.541 415.999H923.354C975.556 415.999 1017.88 456.722 1017.88 506.956C1017.88 557.191 975.556 597.913 923.354 597.913H754.412C751.59 627.527 747.293 657.171 740.65 686.281C726.224 749.507 700.458 811.685 654.065 868.182C607.836 924.481 545.044 970.372 463.386 1007.03C415.986 1028.31 360.311 1007.13 339.033 959.731C317.756 912.331 338.932 856.656 386.331 835.378C447.08 808.107 484.41 778.308 508.656 748.781C532.741 719.45 547.804 685.664 557.214 644.425C560.573 629.704 563.167 614.253 565.176 597.913H383.7C331.497 597.913 289.179 557.19 289.179 506.956C289.179 456.722 331.497 415.999 383.7 415.999H572.369C572.711 379.542 573.271 340.793 575.136 302.763Z" fill="url(#paint1_linear_1_99)"/>
</g>
<path d="M575.136 292.368C577.681 240.474 621.813 200.47 673.706 203.014C725.599 205.56 765.606 249.691 763.062 301.585C761.288 337.746 760.834 371.529 760.541 405.604H923.354C975.556 405.604 1017.88 446.327 1017.88 496.561C1017.88 546.795 975.556 587.518 923.354 587.518H754.412C751.59 617.132 747.293 646.777 740.65 675.886C726.224 739.112 700.457 801.289 654.065 857.786C607.836 914.085 545.044 959.977 463.386 996.634C415.986 1017.91 360.311 996.735 339.033 949.336C317.755 901.936 338.932 846.261 386.331 824.983C447.08 797.712 484.41 767.912 508.656 738.385C532.741 709.054 547.804 675.268 557.214 634.03C560.573 619.309 563.167 603.858 565.176 587.518H383.7C331.497 587.518 289.179 546.795 289.179 496.561C289.179 446.327 331.497 405.604 383.7 405.604H572.369C572.711 369.147 573.271 330.399 575.136 292.368Z" fill="#2B90E7"/>
<path d="M587.595 285.703C589.803 240.69 628.082 205.991 673.095 208.198C718.107 210.406 752.81 248.685 750.603 293.698C748.816 330.125 748.36 364.118 748.067 398.22L747.959 410.801H923.354C969.124 410.802 1005.4 446.388 1005.4 489.285C1005.4 532.182 969.124 567.767 923.354 567.767H743.07L741.994 579.058C739.21 608.274 734.985 637.368 728.489 665.834C714.395 727.604 689.337 787.899 644.425 842.594C599.653 897.118 538.551 941.942 458.277 977.977C417.163 996.433 368.87 978.065 350.413 936.951C331.957 895.836 350.325 847.544 391.439 829.087C453.577 801.194 492.594 770.327 518.297 739.025C543.859 707.894 559.632 672.226 569.375 629.528C572.845 614.322 575.506 598.445 577.557 581.763L579.277 567.767H383.7C337.93 567.767 301.653 532.182 301.653 489.285C301.653 446.387 337.93 410.801 383.7 410.801H584.727L584.843 398.445C585.184 362.009 585.743 323.469 587.595 285.703Z" fill="white" stroke="#59B4F9" stroke-width="24.9483" stroke-linecap="round"/>
<g clip-path="url(#clip4_1_99)">
<path d="M884.971 254.558C920.059 246.282 931.405 221.227 936.035 196.938C936.376 195.147 939.413 195.129 939.766 196.918C944.563 221.219 955.401 245.885 991.038 254.569C992.763 254.989 992.795 258.045 991.076 258.491C961.398 266.195 946.195 284.022 940.295 309.151C939.864 310.988 935.899 310.963 935.543 309.11C930.519 282.949 919.197 266.577 884.936 258.524C883.186 258.113 883.222 254.971 884.971 254.558Z" fill="white"/>
</g>
</g>
<defs>
<filter id="filter0_dd_1_99" x="-19.2441" y="-15.0861" width="1291.49" height="1291.49" filterUnits="userSpaceOnUse" color-interpolation-filters="sRGB">
<feFlood flood-opacity="0" result="BackgroundImageFix"/>
<feColorMatrix in="SourceAlpha" type="matrix" values="0 0 0 0 0 0 0 0 0 0 0 0 0 0 0 0 0 0 127 0" result="hardAlpha"/>
<feMorphology radius="5.19755" operator="erode" in="SourceAlpha" result="effect1_dropShadow_1_99"/>
<feOffset dx="3.11853" dy="5.19755"/>
<feGaussianBlur stdDeviation="16.6322"/>
<feComposite in2="hardAlpha" operator="out"/>
<feColorMatrix type="matrix" values="0 0 0 0 0.540064 0 0 0 0 0.777697 0 0 0 0 1 0 0 0 0.86 0"/>
<feBlend mode="normal" in2="BackgroundImageFix" result="effect1_dropShadow_1_99"/>
<feColorMatrix in="SourceAlpha" type="matrix" values="0 0 0 0 0 0 0 0 0 0 0 0 0 0 0 0 0 0 127 0" result="hardAlpha"/>
<feOffset dy="4.15804"/>
<feGaussianBlur stdDeviation="46.6221"/>
<feComposite in2="hardAlpha" operator="out"/>
<feColorMatrix type="matrix" values="0 0 0 0 0.738782 0 0 0 0 0.838915 0 0 0 0 1 0 0 0 1 0"/>
<feBlend mode="normal" in2="effect1_dropShadow_1_99" result="effect2_dropShadow_1_99"/>
<feBlend mode="normal" in="SourceGraphic" in2="effect2_dropShadow_1_99" result="shape"/>
</filter>
<filter id="filter1_f_1_99" x="254.043" y="178.16" width="798.968" height="872.278" filterUnits="userSpaceOnUse" color-interpolation-filters="sRGB">
<feFlood flood-opacity="0" result="BackgroundImageFix"/>
<feBlend mode="normal" in="SourceGraphic" in2="BackgroundImageFix" result="shape"/>
<feGaussianBlur stdDeviation="17.5677" result="effect1_foregroundBlur_1_99"/>
</filter>
<linearGradient id="paint0_linear_1_99" x1="781.908" y1="704.984" x2="582.322" y2="1179" gradientUnits="userSpaceOnUse">
<stop stop-color="white"/>
<stop offset="0.408654" stop-color="white"/>
<stop offset="1" stop-color="#E1F3FD"/>
</linearGradient>
<linearGradient id="paint1_linear_1_99" x1="653.527" y1="213.295" x2="653.527" y2="1015.3" gradientUnits="userSpaceOnUse">
<stop stop-color="#FFD1DF"/>
<stop offset="0.427885" stop-color="#C5D5FA"/>
<stop offset="1" stop-color="#105F8D"/>
</linearGradient>
<clipPath id="clip0_1_99">
<rect width="1254" height="1254" fill="white"/>
</clipPath>
<clipPath id="clip1_1_99">
<rect x="74" y="74" width="1105" height="1105" rx="249.483" fill="white"/>
</clipPath>
<clipPath id="clip2_1_99">
<rect width="1105.21" height="195.749" fill="white" transform="translate(1179.21 922.139) rotate(-179.856)"/>
</clipPath>
<clipPath id="clip3_1_99">
<rect width="1105.21" height="195.749" fill="white" transform="translate(1179.21 529.346) rotate(-179.856)"/>
</clipPath>
<clipPath id="clip4_1_99">
<rect width="133.057" height="133.057" fill="white" transform="translate(871.305 185.228)"/>
</clipPath>
</defs>
</svg>
